<?xml version="1.0" encoding="iso-8859-1"?>
<!-- Generator: Adobe Illustrator 16.0.3, SVG Export Plug-In . SVG Version: 6.00 Build 0)  -->
<!DOCTYPE svg PUBLIC "-//W3C//DTD SVG 1.1//EN" "http://www.w3.org/Graphics/SVG/1.1/DTD/svg11.dtd">
<svg version="1.1" id="Layer_1" xmlns="http://www.w3.org/2000/svg" xmlns:xlink="http://www.w3.org/1999/xlink" x="0px" y="0px"
	 width="100px" height="100px" viewBox="0 0 100 100" style="enable-background:new 0 0 100 100;" xml:space="preserve">
<g>
	<g>
		<path d="M76.449,26.698c-17.715,0-35.431,0-53.146,0c-2.867,0-4.813,2.282-5,5c-1.336,19.473-2.673,38.947-4.009,58.42
			c-0.187,2.723,2.416,5,5,5c20.388,0,40.775,0,61.163,0c2.584,0,5.187-2.277,5-5c-1.336-19.474-2.672-38.947-4.008-58.42
			c-0.438-6.397-10.441-6.44-10,0c1.336,19.473,2.672,38.947,4.008,58.42c1.667-1.667,3.333-3.333,5-5c-20.388,0-40.775,0-61.163,0
			c1.667,1.667,3.333,3.333,5,5c1.336-19.474,2.673-38.947,4.009-58.42c-1.667,1.667-3.333,3.333-5,5c17.715,0,35.431,0,53.146,0
			C82.897,36.698,82.897,26.698,76.449,26.698z"/>
	</g>
</g>
<g>
	<g>
		<path d="M67.667,39.367c0-5.286,0-10.572,0-15.858c0-2.726-2.274-5-5-5c-0.001,0-0.003,0-0.004,0c1.667,1.667,3.333,3.333,5,5
			C67.185,13.081,60.796,3.761,49.771,3.134C38.775,2.509,32.313,14.043,31.88,23.509c1.667-1.667,3.333-3.333,5-5
			c-0.001,0-0.003,0-0.005,0c-2.726,0-5,2.274-5,5c0,5.286,0,10.572,0,15.858c0,6.449,10,6.449,10,0c0-5.286,0-10.572,0-15.858
			c-1.667,1.667-3.333,3.333-5,5c0.001,0,0.003,0,0.005,0c2.82,0,4.875-2.278,5-5c0.213-4.665,2.589-10.074,7.891-10.375
			c5.278-0.3,7.699,6.185,7.892,10.375c0.125,2.722,2.18,5,5,5c0.001,0,0.003,0,0.004,0c-1.667-1.667-3.333-3.333-5-5
			c0,5.286,0,10.572,0,15.858C57.667,45.816,67.667,45.816,67.667,39.367L67.667,39.367z"/>
	</g>
</g>
</svg>
