<?xml version="1.0" encoding="iso-8859-1"?>
<!-- Generator: Adobe Illustrator 16.0.3, SVG Export Plug-In . SVG Version: 6.00 Build 0)  -->
<!DOCTYPE svg PUBLIC "-//W3C//DTD SVG 1.1//EN" "http://www.w3.org/Graphics/SVG/1.1/DTD/svg11.dtd">
<svg version="1.1" id="Layer_1" xmlns="http://www.w3.org/2000/svg" xmlns:xlink="http://www.w3.org/1999/xlink" x="0px" y="0px"
	 width="100px" height="100px" viewBox="0 0 100 100" style="enable-background:new 0 0 100 100;" xml:space="preserve">
<g>
	<g>
		<path d="M65.5,48.626c-0.312,12.303-9.822,21.813-22.125,22.125C31.074,71.062,21.549,60.46,21.25,48.626
			C20.939,36.325,31.541,26.8,43.375,26.501C55.676,26.19,65.201,36.792,65.5,48.626c0.163,6.437,10.163,6.452,10,0
			c-0.45-17.81-14.315-31.675-32.125-32.125c-17.806-0.45-31.692,14.993-32.125,32.125C10.8,66.433,26.243,80.317,43.375,80.751
			c17.807,0.45,31.691-14.993,32.125-32.125C75.663,42.173,65.663,42.189,65.5,48.626z"/>
	</g>
</g>
<g>
	<g>
		<path d="M58.465,72.036c7.208,7.209,14.416,14.417,21.625,21.625c4.563,4.564,11.635-2.507,7.07-7.07
			c-7.208-7.209-14.416-14.417-21.625-21.625C60.972,60.401,53.9,67.473,58.465,72.036L58.465,72.036z"/>
	</g>
</g>
</svg>
