<?xml version="1.0" encoding="iso-8859-1"?>
<!-- Generator: Adobe Illustrator 16.0.3, SVG Export Plug-In . SVG Version: 6.00 Build 0)  -->
<!DOCTYPE svg PUBLIC "-//W3C//DTD SVG 1.1//EN" "http://www.w3.org/Graphics/SVG/1.1/DTD/svg11.dtd">
<svg version="1.1" id="Layer_1" xmlns="http://www.w3.org/2000/svg" xmlns:xlink="http://www.w3.org/1999/xlink" x="0px" y="0px"
	 width="450px" height="164.696px" viewBox="0 0 450 164.696" style="enable-background:new 0 0 450 164.696;" xml:space="preserve"
	>
<g>
	<path d="M64.559,93.191v1.149h-3.507v18.741h12.031V94.34h-3.567v-1.149h18.923v1.149h-3.567v40.022h3.567v1.148H69.516v-1.148
		h3.567v-19.709H61.052v19.709h3.507v1.148H45.697v-1.148h3.567V94.34h-3.567v-1.149H64.559z"/>
	<path d="M122.296,94.158h-6.106v-0.967h11.91v0.967h-3.99l-9.128,20.192v20.011h3.688v1.148H99.505v-1.148h3.688v-18.863
		L92.915,94.158h-2.841v-0.967h19.346v0.967h-3.93l8.222,18.923L122.296,94.158z"/>
	<path d="M147.146,93.191c11.366,0,18.076,2.539,18.076,12.031c0,10.277-7.919,12.938-19.648,12.938h-0.484v16.202h7.557v1.148
		h-23.275v-1.148h3.93V94.34h-3.93v-1.149H147.146z M145.09,117.01h1.27c5.078,0,6.408-3.506,6.408-10.519v-2.902
		c0-6.832-1.451-9.25-6.046-9.25h-1.632V117.01z"/>
	<path d="M199.501,93.191l0.604,11.97h-1.088c-3.325-7.919-6.167-10.64-13.481-10.64h-2.116v18.681h2.056
		c3.93,0,6.469-3.325,7.497-7.919h0.907v17.895h-1.028c-1.451-6.046-3.748-8.404-7.98-8.404h-1.451v19.407h2.297
		c7.678,0,12.998-5.26,14.812-11.85h1.209l-0.484,13.18h-33.19v-1.33h3.567V94.521h-3.567v-1.33H199.501z"/>
	<path d="M232.754,105.887l-3.627-11.547h-3.446v-1.149h18.741v1.149h-3.566l9.008,28.596l7.254-28.596h-6.105v-1.149h12.091v1.149
		h-3.99l-11.123,41.775h-5.381l-8.947-27.326l-7.859,27.326h-5.26L205.308,94.34h-2.841v-1.149h19.648v1.149h-4.232l9.854,28.958
		L232.754,105.887z"/>
	<path d="M282.996,92.526c12.998,0,19.588,7.98,19.588,21.704c0,13.482-6.348,21.885-20.313,21.885
		c-13.481,0-19.95-7.799-19.95-21.099C262.32,101.111,269.515,92.526,282.996,92.526z M290.13,112.355
		c0-12.394-0.362-18.56-7.617-18.56c-7.315,0-7.799,6.409-7.799,18.802v4.354c0,11.365,0.726,17.895,7.799,17.895
		c6.771,0,7.617-5.864,7.617-18.016V112.355z"/>
	<path d="M321.689,114.108v20.253h3.93v1.148h-19.647v-1.148h3.93V94.34h-3.93v-1.149h18.258c12.635,0,18.681,1.33,18.681,10.157
		c0,7.375-3.869,9.552-10.278,10.096v0.182c6.529,0.846,8.767,3.385,8.767,10.399v3.204c0,3.93,0.182,5.32,1.874,5.32
		c1.088,0,1.995-0.484,2.781-5.199l1.027,0.12c-0.907,6.893-2.6,8.646-8.222,8.646c-7.617,0-9.854-2.539-9.854-11.063v-4.413
		c0-4.293-0.847-6.53-4.111-6.53H321.689z M321.689,112.96h1.935c4.475,0,6.771-2.479,6.771-9.008v-1.753
		c0-6.771-2.479-7.859-6.711-7.859h-1.995V112.96z"/>
	<path d="M368.303,93.191v1.149h-3.325v19.104l0.483-0.121L382.51,94.34h-4.776v-1.149h10.58v1.149h-3.627l-10.398,11.607
		l14.509,28.415h3.265v1.148h-19.406v-1.148h2.842l-9.976-19.286l-0.544,0.121v19.165h3.325v1.148h-18.438v-1.148h3.325V94.34
		h-3.325v-1.149H368.303z"/>
</g>
<g>
	<circle style="stroke:#000000;stroke-miterlimit:10;" cx="218.578" cy="45.392" r="40.005"/>
	<g>
		<path style="fill:#F15A29;" d="M241.15,70.464c-0.612,0.165-1.571,0.332-2.874,0.498c-1.305,0.167-2.596,0.25-3.873,0.25
			c-1.278,0-2.402-0.098-3.373-0.291c-0.973-0.193-1.791-0.542-2.457-1.04c-0.666-0.5-1.167-1.194-1.5-2.084
			c-0.333-0.887-0.5-2.053-0.5-3.497V51.305h-15.991v19.159c-0.612,0.165-1.569,0.332-2.873,0.498
			c-1.306,0.167-2.597,0.25-3.874,0.25s-2.402-0.098-3.373-0.291c-0.972-0.193-1.79-0.542-2.457-1.04
			c-0.667-0.5-1.166-1.194-1.5-2.084c-0.333-0.887-0.5-2.053-0.5-3.497V20.321c0.61-0.109,1.583-0.262,2.915-0.458
			c1.333-0.194,2.61-0.292,3.832-0.292c1.277,0,2.401,0.098,3.374,0.292c0.971,0.195,1.791,0.541,2.458,1.041
			c0.666,0.501,1.166,1.195,1.499,2.083c0.334,0.89,0.5,2.056,0.5,3.498v13.327h15.991V20.321c0.611-0.109,1.583-0.262,2.916-0.458
			c1.332-0.194,2.609-0.292,3.831-0.292c1.276,0,2.401,0.098,3.374,0.292c0.971,0.195,1.79,0.541,2.457,1.041
			c0.666,0.501,1.166,1.195,1.5,2.083c0.332,0.89,0.499,2.056,0.499,3.498V70.464z"/>
	</g>
</g>
<g>
	<path style="fill:#F15A29;" d="M140.303,154.695h-0.861c-0.281,0-0.422-0.141-0.422-0.422v-8.361c0-0.281,0.141-0.422,0.422-0.422
		h0.861c0.281,0,0.422,0.141,0.422,0.422v8.361C140.725,154.554,140.584,154.695,140.303,154.695z"/>
	<path style="fill:#F15A29;" d="M144.405,150.798c0.238-1.078,0.43-1.938,0.574-2.578s0.322-1.441,0.533-2.402
		c0.051-0.219,0.189-0.328,0.416-0.328h0.879c0.137,0,0.246,0.053,0.328,0.158c0.082,0.109,0.109,0.227,0.082,0.352l-1.869,8.373
		c-0.047,0.215-0.184,0.322-0.41,0.322h-1.072c-0.227,0-0.361-0.107-0.404-0.322L141.592,146c-0.031-0.125-0.004-0.242,0.082-0.352
		c0.082-0.105,0.191-0.158,0.328-0.158h0.879c0.223,0,0.361,0.109,0.416,0.328c0.211,0.961,0.387,1.762,0.527,2.402
		S144.159,149.72,144.405,150.798z"/>
	<path style="fill:#F15A29;" d="M152.286,154.355l-0.34-1.711h-1.781l-0.34,1.711c-0.047,0.227-0.186,0.34-0.416,0.34h-0.873
		c-0.137,0-0.246-0.051-0.328-0.152c-0.086-0.098-0.115-0.215-0.088-0.352l1.676-8.361c0.043-0.227,0.18-0.34,0.41-0.34h1.699
		c0.23,0,0.369,0.113,0.416,0.34l1.67,8.361c0.023,0.137-0.006,0.254-0.088,0.352c-0.086,0.102-0.193,0.152-0.322,0.152h-0.879
		C152.467,154.695,152.329,154.582,152.286,154.355z M151.606,150.945l-0.551-2.754l-0.551,2.754H151.606z"/>
	<path style="fill:#F15A29;" d="M158.292,154.425l-1.752-4.553v4.4c0,0.281-0.141,0.422-0.422,0.422h-0.85
		c-0.281,0-0.422-0.141-0.422-0.422v-8.361c0-0.281,0.141-0.422,0.422-0.422h1.113c0.188,0,0.318,0.09,0.393,0.27l1.758,4.559
		v-4.406c0-0.281,0.141-0.422,0.422-0.422h0.844c0.281,0,0.422,0.141,0.422,0.422v8.355c0,0.277-0.139,0.416-0.416,0.416
		l-1.113,0.006C158.495,154.693,158.362,154.605,158.292,154.425z"/>
	<path style="fill:#F15A29;" d="M167.948,147.189h-2.273v2.051h1.904c0.277,0,0.416,0.141,0.416,0.422v0.861
		c0,0.281-0.139,0.422-0.416,0.422h-1.904v3.328c0,0.281-0.141,0.422-0.422,0.422h-0.861c-0.281,0-0.422-0.141-0.422-0.422v-7.16
		c0-0.445,0.158-0.827,0.475-1.146s0.699-0.478,1.148-0.478h2.355c0.281,0,0.422,0.141,0.422,0.422v0.861
		C168.37,147.05,168.229,147.189,167.948,147.189z"/>
	<path style="fill:#F15A29;" d="M173.204,154.695h-2.396c-0.445,0-0.826-0.158-1.143-0.475s-0.475-0.697-0.475-1.143v-7.166
		c0-0.281,0.141-0.422,0.422-0.422h3.557c0.281,0,0.422,0.141,0.422,0.422v0.861c0,0.277-0.141,0.416-0.422,0.416h-2.279v2.051
		h1.904c0.281,0,0.422,0.141,0.422,0.422v0.861c0,0.281-0.141,0.422-0.422,0.422h-1.904v2.051h2.314
		c0.281,0,0.422,0.141,0.422,0.422v0.855C173.625,154.554,173.485,154.695,173.204,154.695z"/>
	<path style="fill:#F15A29;" d="M177.891,154.695h-3.029c-0.277,0-0.416-0.141-0.416-0.422v-8.361c0-0.281,0.139-0.422,0.416-0.422
		h3.029c0.445,0,0.841,0.17,1.187,0.51s0.519,0.734,0.519,1.184v1.523c0,0.387-0.123,0.729-0.369,1.025l-0.287,0.352l0.299,0.369
		c0.238,0.297,0.357,0.635,0.357,1.014v1.535c0,0.453-0.172,0.849-0.516,1.187S178.34,154.695,177.891,154.695z M176.145,149.24
		h1.746v-2.051h-1.746V149.24z M176.145,152.996h1.746v-2.051h-1.746V152.996z"/>
	<path style="fill:#F15A29;" d="M185.28,154.695h-0.92c-0.188,0-0.316-0.09-0.387-0.27l-1.348-3.48h-0.504v3.328
		c0,0.281-0.141,0.422-0.422,0.422h-0.861c-0.281,0-0.422-0.141-0.422-0.422v-8.361c0-0.281,0.141-0.422,0.422-0.422h2.994
		c0.449,0,0.848,0.171,1.195,0.513s0.521,0.739,0.521,1.192v2.039c0,0.359-0.111,0.686-0.334,0.979s-0.496,0.5-0.82,0.621
		l1.277,3.287c0.055,0.145,0.041,0.275-0.041,0.393C185.545,154.634,185.428,154.695,185.28,154.695z M183.844,149.24v-2.051h-1.723
		v2.051H183.844z"/>
	<path style="fill:#F15A29;" d="M187.858,154.695h-0.861c-0.281,0-0.422-0.141-0.422-0.422v-8.361c0-0.281,0.141-0.422,0.422-0.422
		h0.861c0.281,0,0.422,0.141,0.422,0.422v8.361C188.28,154.554,188.139,154.695,187.858,154.695z"/>
	<path style="fill:#F15A29;" d="M193.307,154.355l-0.34-1.711h-1.781l-0.34,1.711c-0.047,0.227-0.186,0.34-0.416,0.34h-0.873
		c-0.137,0-0.246-0.051-0.328-0.152c-0.086-0.098-0.115-0.215-0.088-0.352l1.676-8.361c0.043-0.227,0.18-0.34,0.41-0.34h1.699
		c0.23,0,0.369,0.113,0.416,0.34l1.67,8.361c0.023,0.137-0.006,0.254-0.088,0.352c-0.086,0.102-0.193,0.152-0.322,0.152h-0.879
		C193.489,154.695,193.35,154.582,193.307,154.355z M192.627,150.945l-0.551-2.754l-0.551,2.754H192.627z"/>
	<path style="fill:#F15A29;" d="M199.313,154.425l-1.752-4.553v4.4c0,0.281-0.141,0.422-0.422,0.422h-0.85
		c-0.281,0-0.422-0.141-0.422-0.422v-8.361c0-0.281,0.141-0.422,0.422-0.422h1.113c0.188,0,0.318,0.09,0.393,0.27l1.758,4.559
		v-4.406c0-0.281,0.141-0.422,0.422-0.422h0.844c0.281,0,0.422,0.141,0.422,0.422v8.355c0,0.277-0.139,0.416-0.416,0.416
		l-1.113,0.006C199.516,154.693,199.383,154.605,199.313,154.425z"/>
	<path style="fill:#F15A29;" d="M205.477,154.695h-1.711c-0.453,0-0.851-0.169-1.192-0.507s-0.513-0.735-0.513-1.192v-0.322
		c0-0.281,0.139-0.422,0.416-0.422h0.861c0.281,0,0.422,0.141,0.422,0.422v0.322h1.717v-2.051h-1.711
		c-0.453,0-0.851-0.17-1.192-0.51s-0.513-0.736-0.513-1.189v-2.057c0-0.449,0.171-0.845,0.513-1.187s0.739-0.513,1.192-0.513h1.711
		c0.449,0,0.845,0.17,1.187,0.51s0.513,0.734,0.513,1.184v0.281c0,0.277-0.139,0.416-0.416,0.416h-0.861
		c-0.281,0-0.422-0.139-0.422-0.416v-0.275h-1.717v2.051h1.717c0.449,0,0.845,0.17,1.187,0.51s0.513,0.734,0.513,1.184v2.068
		c0,0.457-0.171,0.854-0.513,1.189S205.926,154.695,205.477,154.695z"/>
	<path style="fill:#F15A29;" d="M211.641,151.302v2.971c0,0.281-0.141,0.422-0.422,0.422h-0.879c-0.281,0-0.422-0.141-0.422-0.422
		v-2.982l-1.846-5.238c-0.051-0.137-0.033-0.266,0.053-0.387c0.09-0.117,0.205-0.176,0.346-0.176h0.855
		c0.199,0,0.332,0.096,0.398,0.287l1.061,3.141l1.043-3.141c0.062-0.191,0.195-0.287,0.398-0.287h0.908
		c0.141,0,0.254,0.061,0.34,0.182c0.082,0.117,0.1,0.244,0.053,0.381L211.641,151.302z"/>
	<path style="fill:#F15A29;" d="M218.625,154.355l-0.34-1.711h-1.781l-0.34,1.711c-0.047,0.227-0.186,0.34-0.416,0.34h-0.873
		c-0.137,0-0.246-0.051-0.328-0.152c-0.086-0.098-0.115-0.215-0.088-0.352l1.676-8.361c0.043-0.227,0.18-0.34,0.41-0.34h1.699
		c0.23,0,0.369,0.113,0.416,0.34l1.67,8.361c0.023,0.137-0.006,0.254-0.088,0.352c-0.086,0.102-0.193,0.152-0.322,0.152h-0.879
		C218.807,154.695,218.668,154.582,218.625,154.355z M217.946,150.945l-0.551-2.754l-0.551,2.754H217.946z"/>
	<path style="fill:#F15A29;" d="M226.097,154.695h-0.862c-0.281,0-0.422-0.141-0.422-0.422v-3.328h-1.928v3.328
		c0,0.281-0.139,0.422-0.416,0.422h-0.867c-0.277,0-0.416-0.141-0.416-0.422v-8.361c0-0.281,0.139-0.422,0.416-0.422h0.867
		c0.277,0,0.416,0.141,0.416,0.422v3.328h1.928v-3.328c0-0.281,0.141-0.422,0.422-0.422h0.862c0.277,0,0.416,0.141,0.416,0.422
		v8.361C226.513,154.554,226.374,154.695,226.097,154.695z"/>
	<path style="fill:#F15A29;" d="M235.173,154.695h-0.861c-0.281,0-0.422-0.141-0.422-0.422v-3.328h-1.928v3.328
		c0,0.281-0.139,0.422-0.416,0.422h-0.867c-0.277,0-0.416-0.141-0.416-0.422v-8.361c0-0.281,0.139-0.422,0.416-0.422h0.867
		c0.277,0,0.416,0.141,0.416,0.422v3.328h1.928v-3.328c0-0.281,0.141-0.422,0.422-0.422h0.861c0.277,0,0.416,0.141,0.416,0.422
		v8.361C235.589,154.554,235.45,154.695,235.173,154.695z"/>
	<path style="fill:#F15A29;" d="M240.615,154.355l-0.34-1.711h-1.78l-0.34,1.711c-0.047,0.227-0.186,0.34-0.416,0.34h-0.873
		c-0.137,0-0.246-0.051-0.328-0.152c-0.086-0.098-0.115-0.215-0.088-0.352l1.676-8.361c0.043-0.227,0.18-0.34,0.41-0.34h1.698
		c0.23,0,0.369,0.113,0.416,0.34l1.67,8.361c0.023,0.137-0.006,0.254-0.088,0.352c-0.086,0.102-0.193,0.152-0.322,0.152h-0.879
		C240.797,154.695,240.658,154.582,240.615,154.355z M239.936,150.945l-0.55-2.754l-0.551,2.754H239.936z"/>
	<path style="fill:#F15A29;" d="M248.461,147.195v5.795c0,0.457-0.174,0.855-0.521,1.195s-0.744,0.51-1.189,0.51h-3.152
		c-0.281,0-0.422-0.141-0.422-0.422v-8.361c0-0.281,0.141-0.422,0.422-0.422h3.146c0.449,0,0.848,0.172,1.195,0.516
		S248.461,146.746,248.461,147.195z M246.762,152.996v-5.807h-1.881v5.807H246.762z"/>
	<path style="fill:#F15A29;" d="M250.564,154.695h-0.861c-0.281,0-0.422-0.141-0.422-0.422v-8.361c0-0.281,0.141-0.422,0.422-0.422
		h0.861c0.281,0,0.422,0.141,0.422,0.422v8.361C250.986,154.554,250.846,154.695,250.564,154.695z"/>
	<path style="fill:#F15A29;" d="M258.182,154.425l-1.752-4.553v4.4c0,0.281-0.141,0.422-0.422,0.422h-0.85
		c-0.281,0-0.422-0.141-0.422-0.422v-8.361c0-0.281,0.141-0.422,0.422-0.422h1.113c0.188,0,0.318,0.09,0.393,0.27l1.758,4.559
		v-4.406c0-0.281,0.141-0.422,0.422-0.422h0.844c0.281,0,0.422,0.141,0.422,0.422v8.355c0,0.277-0.139,0.416-0.416,0.416
		l-1.113,0.006C258.385,154.693,258.252,154.605,258.182,154.425z"/>
	<path style="fill:#F15A29;" d="M264.51,154.695h-1.875c-0.453,0-0.851-0.169-1.192-0.507s-0.513-0.733-0.513-1.187v-7.09
		c0-0.281,0.141-0.422,0.422-0.422h0.855c0.281,0,0.422,0.141,0.422,0.422v7.084h1.904v-7.084c0-0.281,0.139-0.422,0.416-0.422
		h0.861c0.281,0,0.422,0.141,0.422,0.422v7.078c0,0.457-0.175,0.855-0.524,1.195S264.959,154.695,264.51,154.695z"/>
	<path style="fill:#F15A29;" d="M270.586,154.695h-1.834c-0.449,0-0.845-0.168-1.187-0.504s-0.513-0.73-0.513-1.184v-5.818
		c0-0.449,0.173-0.845,0.519-1.187s0.743-0.513,1.192-0.513h1.822c0.449,0,0.847,0.171,1.192,0.513s0.519,0.737,0.519,1.187v0.293
		c0,0.277-0.139,0.416-0.416,0.416h-0.861c-0.281,0-0.422-0.139-0.422-0.416v-0.293h-1.84v5.807h1.84v-2.051h-0.744
		c-0.277,0-0.416-0.141-0.416-0.422v-0.861c0-0.281,0.139-0.422,0.416-0.422h2.027c0.277,0,0.416,0.141,0.416,0.422v3.334
		c0,0.457-0.173,0.854-0.519,1.192S271.035,154.695,270.586,154.695z"/>
	<path style="fill:#F15A29;" d="M277.98,154.695h-0.92c-0.188,0-0.316-0.09-0.387-0.27l-1.348-3.48h-0.504v3.328
		c0,0.281-0.141,0.422-0.422,0.422h-0.861c-0.281,0-0.422-0.141-0.422-0.422v-8.361c0-0.281,0.141-0.422,0.422-0.422h2.994
		c0.449,0,0.848,0.171,1.195,0.513s0.521,0.739,0.521,1.192v2.039c0,0.359-0.111,0.686-0.334,0.979s-0.496,0.5-0.82,0.621
		l1.277,3.287c0.055,0.145,0.041,0.275-0.041,0.393C278.246,154.634,278.129,154.695,277.98,154.695z M276.545,149.24v-2.051h-1.723
		v2.051H276.545z"/>
	<path style="fill:#F15A29;" d="M283.482,154.355l-0.34-1.711h-1.781l-0.34,1.711c-0.047,0.227-0.186,0.34-0.416,0.34h-0.873
		c-0.137,0-0.246-0.051-0.328-0.152c-0.086-0.098-0.115-0.215-0.088-0.352l1.676-8.361c0.043-0.227,0.18-0.34,0.41-0.34h1.699
		c0.23,0,0.369,0.113,0.416,0.34l1.67,8.361c0.023,0.137-0.006,0.254-0.088,0.352c-0.086,0.102-0.193,0.152-0.322,0.152h-0.879
		C283.664,154.695,283.525,154.582,283.482,154.355z M282.803,150.945l-0.551-2.754l-0.551,2.754H282.803z"/>
	<path style="fill:#F15A29;" d="M290.953,154.695h-0.861c-0.281,0-0.422-0.141-0.422-0.422v-3.328h-1.928v3.328
		c0,0.281-0.139,0.422-0.416,0.422h-0.867c-0.277,0-0.416-0.141-0.416-0.422v-8.361c0-0.281,0.139-0.422,0.416-0.422h0.867
		c0.277,0,0.416,0.141,0.416,0.422v3.328h1.928v-3.328c0-0.281,0.141-0.422,0.422-0.422h0.861c0.277,0,0.416,0.141,0.416,0.422
		v8.361C291.369,154.554,291.23,154.695,290.953,154.695z"/>
	<path style="fill:#F15A29;" d="M296.396,154.355l-0.34-1.711h-1.781l-0.34,1.711c-0.047,0.227-0.186,0.34-0.416,0.34h-0.873
		c-0.137,0-0.246-0.051-0.328-0.152c-0.086-0.098-0.115-0.215-0.088-0.352l1.676-8.361c0.043-0.227,0.18-0.34,0.41-0.34h1.699
		c0.23,0,0.369,0.113,0.416,0.34l1.67,8.361c0.023,0.137-0.006,0.254-0.088,0.352c-0.086,0.102-0.193,0.152-0.322,0.152h-0.879
		C296.578,154.695,296.439,154.582,296.396,154.355z M295.717,150.945l-0.551-2.754l-0.551,2.754H295.717z"/>
</g>
</svg>
