<?xml version="1.0" encoding="iso-8859-1"?>
<!-- Generator: Adobe Illustrator 16.0.3, SVG Export Plug-In . SVG Version: 6.00 Build 0)  -->
<!DOCTYPE svg PUBLIC "-//W3C//DTD SVG 1.1//EN" "http://www.w3.org/Graphics/SVG/1.1/DTD/svg11.dtd">
<svg version="1.1" id="Layer_1" xmlns="http://www.w3.org/2000/svg" xmlns:xlink="http://www.w3.org/1999/xlink" x="0px" y="0px"
	 width="150px" height="150px" viewBox="0 0 150 150" style="enable-background:new 0 0 150 150;" xml:space="preserve">
<g>
	<circle style="stroke:#000000;stroke-miterlimit:10;" cx="75" cy="75" r="68.265"/>
	<g>
		<path style="fill:#F15A29;" d="M113.518,117.781c-1.044,0.284-2.679,0.568-4.903,0.853c-2.228,0.284-4.431,0.427-6.609,0.427
			c-2.181,0-4.1-0.167-5.756-0.498c-1.659-0.331-3.057-0.924-4.193-1.776s-1.99-2.036-2.559-3.554
			c-0.568-1.514-0.853-3.504-0.853-5.969V85.091H61.355v32.69c-1.044,0.284-2.678,0.568-4.903,0.853
			c-2.228,0.284-4.431,0.427-6.609,0.427c-2.181,0-4.1-0.167-5.756-0.498c-1.659-0.331-3.056-0.924-4.193-1.776
			c-1.137-0.853-1.989-2.036-2.558-3.554c-0.568-1.514-0.854-3.504-0.854-5.969V32.219c1.042-0.188,2.701-0.448,4.975-0.782
			c2.274-0.33,4.453-0.497,6.538-0.497c2.179,0,4.098,0.167,5.757,0.497c1.656,0.334,3.056,0.924,4.192,1.777
			c1.138,0.853,1.99,2.038,2.559,3.553c0.568,1.517,0.853,3.507,0.853,5.97v22.741h27.289V32.219c1.042-0.188,2.7-0.448,4.975-0.782
			c2.274-0.33,4.453-0.497,6.538-0.497c2.179,0,4.098,0.167,5.756,0.497c1.657,0.334,3.057,0.924,4.193,1.777
			c1.137,0.853,1.989,2.038,2.559,3.553c0.568,1.517,0.853,3.507,0.853,5.97V117.781z"/>
	</g>
</g>
</svg>
